<svg width="170" height="34" viewBox="0 0 170 34" fill="none" xmlns="http://www.w3.org/2000/svg">
<path d="M18.1244 4.84124C13.0535 4.78865 12.1702 0.586741 7.12877 0.0375284C-6.24803 -1.41975 1.26123 40.0888 12.7647 33.1079C15.9034 31.2033 14.4546 27.8907 18.1244 27.9996C21.6929 28.1055 20.2779 31.1347 23.2531 33.1079C34.4919 40.5621 42.3588 -1.18444 28.9282 0.0375242C23.7753 0.506349 23.2982 4.8949 18.1244 4.84124Z" fill="#79BCF5"/>
<path d="M45.4327 27V12.4545H54.8929V14.6634H48.0676V18.6122H54.4029V20.821H48.0676V24.7912H54.9498V27H45.4327ZM62.226 27.2131C61.137 27.2131 60.2019 26.974 59.4206 26.4957C58.6441 26.0175 58.0452 25.357 57.6238 24.5142C57.2071 23.6667 56.9988 22.6913 56.9988 21.5881C56.9988 20.4801 57.2118 19.5024 57.638 18.6548C58.0641 17.8026 58.6654 17.1397 59.4419 16.6662C60.2232 16.188 61.1465 15.9489 62.2118 15.9489C63.0972 15.9489 63.8809 16.1122 64.5627 16.4389C65.2492 16.7609 65.7961 17.2178 66.2033 17.8097C66.6105 18.3968 66.8425 19.0833 66.8993 19.8693H64.4419C64.3425 19.3437 64.1058 18.9058 63.7317 18.5554C63.3624 18.2003 62.8676 18.0227 62.2473 18.0227C61.7218 18.0227 61.2601 18.1648 60.8624 18.4489C60.4647 18.7282 60.1545 19.1307 59.932 19.6562C59.7142 20.1818 59.6053 20.8116 59.6053 21.5455C59.6053 22.2888 59.7142 22.928 59.932 23.4631C60.1498 23.9934 60.4552 24.4029 60.8482 24.6918C61.2459 24.9759 61.7123 25.1179 62.2473 25.1179C62.6261 25.1179 62.9647 25.0469 63.263 24.9048C63.566 24.758 63.8193 24.5473 64.0229 24.2727C64.2265 23.9981 64.3662 23.6643 64.4419 23.2713H66.8993C66.8378 24.0431 66.6105 24.7273 66.2175 25.3239C65.8245 25.9157 65.2895 26.3797 64.6124 26.7159C63.9353 27.0473 63.1399 27.2131 62.226 27.2131ZM73.769 27.2131C72.7037 27.2131 71.7804 26.9787 70.9991 26.5099C70.2179 26.0412 69.6118 25.3854 69.1809 24.5426C68.7548 23.6998 68.5417 22.715 68.5417 21.5881C68.5417 20.4612 68.7548 19.474 69.1809 18.6264C69.6118 17.7789 70.2179 17.1207 70.9991 16.652C71.7804 16.1832 72.7037 15.9489 73.769 15.9489C74.8343 15.9489 75.7576 16.1832 76.5389 16.652C77.3201 17.1207 77.9238 17.7789 78.35 18.6264C78.7808 19.474 78.9963 20.4612 78.9963 21.5881C78.9963 22.715 78.7808 23.6998 78.35 24.5426C77.9238 25.3854 77.3201 26.0412 76.5389 26.5099C75.7576 26.9787 74.8343 27.2131 73.769 27.2131ZM73.7832 25.1534C74.3609 25.1534 74.8438 24.9948 75.2321 24.6776C75.6203 24.3556 75.9092 23.9247 76.0985 23.3849C76.2927 22.8452 76.3897 22.2438 76.3897 21.581C76.3897 20.9134 76.2927 20.3097 76.0985 19.7699C75.9092 19.2254 75.6203 18.7921 75.2321 18.4702C74.8438 18.1482 74.3609 17.9872 73.7832 17.9872C73.1913 17.9872 72.6989 18.1482 72.3059 18.4702C71.9177 18.7921 71.6265 19.2254 71.4324 19.7699C71.243 20.3097 71.1483 20.9134 71.1483 21.581C71.1483 22.2438 71.243 22.8452 71.4324 23.3849C71.6265 23.9247 71.9177 24.3556 72.3059 24.6776C72.6989 24.9948 73.1913 25.1534 73.7832 25.1534ZM86.2211 27H81.2921V12.4545H86.3205C87.7646 12.4545 89.0051 12.7457 90.0421 13.3281C91.0837 13.9058 91.8839 14.7367 92.4426 15.821C93.0014 16.9053 93.2807 18.2027 93.2807 19.7131C93.2807 21.2282 92.999 22.5303 92.4355 23.6193C91.8768 24.7083 91.0695 25.544 90.0137 26.1264C88.9625 26.7088 87.6983 27 86.2211 27ZM83.927 24.7202H86.0932C87.1065 24.7202 87.9516 24.5355 88.6287 24.1662C89.3058 23.7921 89.8148 23.2358 90.1557 22.4972C90.4966 21.7538 90.6671 20.8258 90.6671 19.7131C90.6671 18.6004 90.4966 17.6771 90.1557 16.9432C89.8148 16.2045 89.3105 15.6529 88.6429 15.2884C87.9801 14.919 87.1562 14.7344 86.1713 14.7344H83.927V24.7202ZM100.5 27.2131C99.4064 27.2131 98.4618 26.9858 97.6664 26.5312C96.8757 26.072 96.2672 25.4233 95.8411 24.5852C95.415 23.7424 95.2019 22.7505 95.2019 21.6094C95.2019 20.4872 95.415 19.5024 95.8411 18.6548C96.272 17.8026 96.8733 17.1397 97.6451 16.6662C98.4168 16.188 99.3236 15.9489 100.365 15.9489C101.038 15.9489 101.672 16.0578 102.269 16.2756C102.87 16.4886 103.4 16.8201 103.86 17.2699C104.324 17.7197 104.688 18.2926 104.953 18.9886C105.218 19.6799 105.351 20.5038 105.351 21.4602V22.2486H96.4093V20.5156H102.887C102.882 20.0232 102.775 19.5852 102.567 19.2017C102.359 18.8134 102.067 18.508 101.693 18.2855C101.324 18.063 100.893 17.9517 100.401 17.9517C99.8752 17.9517 99.4135 18.0795 99.0158 18.3352C98.6181 18.5862 98.3079 18.9176 98.0854 19.3295C97.8676 19.7367 97.7563 20.1842 97.7516 20.6719V22.1847C97.7516 22.8191 97.8676 23.3636 98.0996 23.8182C98.3316 24.268 98.656 24.6136 99.0726 24.8551C99.4893 25.0919 99.977 25.2102 100.536 25.2102C100.91 25.2102 101.248 25.1581 101.551 25.054C101.854 24.9451 102.117 24.7865 102.34 24.5781C102.562 24.3698 102.73 24.1117 102.844 23.804L105.244 24.0739C105.093 24.7083 104.804 25.2623 104.378 25.7358C103.957 26.2045 103.417 26.5691 102.759 26.8295C102.101 27.0852 101.348 27.2131 100.5 27.2131ZM110.097 20.608V27H107.526V16.0909H109.983V17.9446H110.111C110.362 17.3338 110.762 16.8485 111.312 16.4886C111.866 16.1288 112.55 15.9489 113.364 15.9489C114.117 15.9489 114.773 16.1098 115.331 16.4318C115.895 16.7538 116.331 17.2202 116.638 17.831C116.951 18.4418 117.105 19.1828 117.1 20.054V27H114.529V20.4517C114.529 19.7225 114.34 19.152 113.961 18.7401C113.587 18.3281 113.068 18.1222 112.405 18.1222C111.956 18.1222 111.555 18.2216 111.205 18.4205C110.859 18.6146 110.587 18.8963 110.388 19.2656C110.194 19.6349 110.097 20.0824 110.097 20.608ZM125.161 16.0909V18.0795H118.89V16.0909H125.161ZM120.438 13.4773H123.009V23.7188C123.009 24.0644 123.061 24.3295 123.165 24.5142C123.274 24.6941 123.416 24.8172 123.591 24.8835C123.767 24.9498 123.961 24.983 124.174 24.983C124.335 24.983 124.482 24.9711 124.614 24.9474C124.751 24.9238 124.856 24.9025 124.927 24.8835L125.36 26.8935C125.223 26.9408 125.026 26.9929 124.77 27.0497C124.519 27.1065 124.212 27.1397 123.847 27.1491C123.203 27.1681 122.623 27.071 122.107 26.858C121.591 26.6402 121.181 26.304 120.878 25.8494C120.58 25.3949 120.433 24.8267 120.438 24.1449V13.4773ZM127.311 27V16.0909H129.882V27H127.311ZM128.604 14.5426C128.197 14.5426 127.846 14.4077 127.553 14.1378C127.259 13.8632 127.112 13.5341 127.112 13.1506C127.112 12.7623 127.259 12.4332 127.553 12.1634C127.846 11.8887 128.197 11.7514 128.604 11.7514C129.016 11.7514 129.366 11.8887 129.655 12.1634C129.949 12.4332 130.095 12.7623 130.095 13.1506C130.095 13.5341 129.949 13.8632 129.655 14.1378C129.366 14.4077 129.016 14.5426 128.604 14.5426ZM141.148 18.9744L138.805 19.2301C138.738 18.9934 138.622 18.7708 138.456 18.5625C138.296 18.3542 138.078 18.1861 137.803 18.0582C137.528 17.9304 137.192 17.8665 136.795 17.8665C136.26 17.8665 135.81 17.9825 135.445 18.2145C135.085 18.4465 134.908 18.7472 134.912 19.1165C134.908 19.4337 135.024 19.6918 135.26 19.8906C135.502 20.0895 135.9 20.2528 136.454 20.3807L138.314 20.7784C139.347 21.0009 140.114 21.3537 140.616 21.8366C141.122 22.3196 141.378 22.9517 141.383 23.733C141.378 24.4195 141.177 25.0256 140.779 25.5511C140.386 26.072 139.839 26.4792 139.138 26.7727C138.438 27.0663 137.633 27.2131 136.724 27.2131C135.388 27.2131 134.314 26.9337 133.499 26.375C132.685 25.8116 132.199 25.0279 132.043 24.0241L134.55 23.7827C134.664 24.2751 134.905 24.6468 135.275 24.8977C135.644 25.1487 136.125 25.2741 136.716 25.2741C137.327 25.2741 137.817 25.1487 138.187 24.8977C138.561 24.6468 138.748 24.3366 138.748 23.9673C138.748 23.6548 138.627 23.3968 138.385 23.1932C138.149 22.9896 137.779 22.8333 137.278 22.7244L135.417 22.3338C134.37 22.116 133.596 21.7491 133.094 21.233C132.592 20.7121 132.344 20.054 132.349 19.2585C132.344 18.5862 132.526 18.0038 132.895 17.5114C133.269 17.0142 133.788 16.6307 134.451 16.3608C135.118 16.0862 135.888 15.9489 136.759 15.9489C138.037 15.9489 139.044 16.2211 139.778 16.7656C140.516 17.3101 140.973 18.0464 141.148 18.9744ZM148.95 16.0909V18.0795H142.679V16.0909H148.95ZM144.227 13.4773H146.798V23.7188C146.798 24.0644 146.85 24.3295 146.954 24.5142C147.063 24.6941 147.205 24.8172 147.381 24.8835C147.556 24.9498 147.75 24.983 147.963 24.983C148.124 24.983 148.271 24.9711 148.403 24.9474C148.541 24.9238 148.645 24.9025 148.716 24.8835L149.149 26.8935C149.012 26.9408 148.815 26.9929 148.559 27.0497C148.309 27.1065 148.001 27.1397 147.636 27.1491C146.992 27.1681 146.412 27.071 145.896 26.858C145.38 26.6402 144.97 26.304 144.667 25.8494C144.369 25.3949 144.222 24.8267 144.227 24.1449V13.4773ZM151.1 27V16.0909H153.593V17.9091H153.707C153.906 17.2794 154.247 16.794 154.73 16.4531C155.217 16.1075 155.774 15.9347 156.399 15.9347C156.541 15.9347 156.699 15.9418 156.874 15.956C157.054 15.9654 157.204 15.982 157.322 16.0057V18.3707C157.213 18.3329 157.04 18.2997 156.803 18.2713C156.571 18.2382 156.347 18.2216 156.129 18.2216C155.66 18.2216 155.239 18.3234 154.865 18.527C154.495 18.7259 154.204 19.0028 153.991 19.358C153.778 19.7131 153.671 20.1226 153.671 20.5866V27H151.1ZM160.96 31.0909C160.61 31.0909 160.285 31.0625 159.987 31.0057C159.693 30.9536 159.459 30.892 159.284 30.821L159.881 28.8182C160.255 28.9271 160.588 28.9792 160.882 28.9744C161.175 28.9697 161.434 28.8774 161.656 28.6974C161.883 28.5223 162.075 28.2287 162.231 27.8168L162.452 27.2273L158.496 16.0909H161.223L163.737 24.3295H163.851L166.372 16.0909H169.106L164.738 28.321C164.535 28.8987 164.265 29.3935 163.929 29.8054C163.593 30.2221 163.181 30.5393 162.693 30.7571C162.21 30.9796 161.632 31.0909 160.96 31.0909Z" fill="#0D0C0C"/>
</svg>
